<svg width="4406" height="2285" xmlns="http://www.w3.org/2000/svg" xmlns:xlink="http://www.w3.org/1999/xlink" overflow="hidden"><defs><clipPath id="clip0"><rect x="-1" y="-1" width="4406" height="2285"/></clipPath><clipPath id="clip1"><rect x="0" y="0" width="4403" height="2282"/></clipPath><clipPath id="clip2"><rect x="0" y="0" width="4403" height="2282"/></clipPath><clipPath id="clip3"><rect x="0" y="0" width="4403" height="2282"/></clipPath><clipPath id="clip4"><rect x="0" y="0" width="4403" height="2282"/></clipPath><clipPath id="clip5"><rect x="288" y="169" width="3958" height="1905"/></clipPath><clipPath id="clip6"><rect x="288" y="169" width="3958" height="1905"/></clipPath><clipPath id="clip7"><rect x="0" y="0" width="4403" height="2282"/></clipPath><clipPath id="clip8"><rect x="0" y="0" width="4403" height="2282"/></clipPath><clipPath id="clip9"><rect x="0" y="0" width="4403" height="2282"/></clipPath><clipPath id="clip10"><rect x="0" y="0" width="4403" height="2282"/></clipPath><clipPath id="clip11"><rect x="0" y="0" width="4403" height="2282"/></clipPath><clipPath id="clip12"><rect x="0" y="0" width="4403" height="2282"/></clipPath><clipPath id="clip13"><rect x="0" y="0" width="4403" height="2282"/></clipPath><clipPath id="clip14"><rect x="0" y="0" width="4403" height="2282"/></clipPath><clipPath id="clip15"><rect x="0" y="0" width="4403" height="2282"/></clipPath><clipPath id="clip16"><rect x="0" y="0" width="4403" height="2282"/></clipPath><clipPath id="clip17"><rect x="0" y="0" width="4403" height="2282"/></clipPath><clipPath id="clip18"><rect x="0" y="0" width="4403" height="2282"/></clipPath><clipPath id="clip19"><rect x="0" y="0" width="4403" height="2282"/></clipPath><clipPath id="clip20"><rect x="0" y="0" width="4403" height="2282"/></clipPath><clipPath id="clip21"><rect x="0" y="0" width="4403" height="2282"/></clipPath><clipPath id="clip22"><rect x="0" y="0" width="4403" height="2282"/></clipPath><clipPath id="clip23"><rect x="0" y="0" width="4403" height="2282"/></clipPath><clipPath id="clip24"><rect x="0" y="0" width="4403" height="2282"/></clipPath><clipPath id="clip25"><rect x="0" y="0" width="4403" height="2282"/></clipPath><clipPath id="clip26"><rect x="0" y="0" width="4403" height="2282"/></clipPath><clipPath id="clip27"><rect x="0" y="0" width="4403" height="2282"/></clipPath><clipPath id="clip28"><rect x="0" y="0" width="4403" height="2282"/></clipPath></defs><g clip-path="url(#clip0)" transform="translate(1 1)"><rect x="0" y="0" width="4403" height="2282" fill="#FFFFFF"/><g clip-path="url(#clip1)"><path d="M288.5 1754.56 4242.5 1754.56M288.5 1437.55 4242.5 1437.55M288.5 1120.54 4242.5 1120.54M288.5 803.526 4242.5 803.526M288.5 486.516 4242.5 486.516M288.5 169.5 4242.5 169.5" stroke="#D9D9D9" stroke-width="3.4375" stroke-linejoin="round" stroke-miterlimit="10" fill="none"/></g><g clip-path="url(#clip2)"><path d="M782.526 169.5 782.526 2071.5M1277.54 169.5 1277.54 2071.5M1771.56 169.5 1771.56 2071.5M2265.57 169.5 2265.57 2071.5M2760.59 169.5 2760.59 2071.5M3254.61 169.5 3254.61 2071.5M3748.62 169.5 3748.62 2071.5M4242.5 169.5 4242.5 2071.5" stroke="#D9D9D9" stroke-width="3.4375" stroke-linejoin="round" stroke-miterlimit="10" fill="none"/></g><g clip-path="url(#clip3)"><path d="M0 0 0.000360892 1902" stroke="#BFBFBF" stroke-width="3.4375" stroke-linejoin="round" stroke-miterlimit="10" fill="none" fill-rule="evenodd" transform="matrix(1 0 0 -1 288.5 2071.5)"/></g><g clip-path="url(#clip4)"><path d="M288.5 2071.5 4242.5 2071.5" stroke="#BFBFBF" stroke-width="3.4375" stroke-linejoin="round" stroke-miterlimit="10" fill="none" fill-rule="evenodd"/></g><g clip-path="url(#clip5)"><path d="M313.5 1460.55 326.511 2057.5 339.511 2056.57 351.512 2055.57 364.512 2050.57 377.513 2044.57 389.513 2047.57 402.513 2043.57 415.514 2043.57 427.514 2041.57 440.515 2037.57 453.515 2001.57 465.515 2037.57 478.516 2034.57 491.516 2033.57 503.517 2032.57 516.517 2010.57 529.518 2022.57 541.518 2025.57 554.518 2010.57 567.519 2000.57 579.519 2016.57 592.52 2016.57 605.52 2018.57 617.52 2017.57 630.521 2010.57 642.521 2011.57 655.522 2008.57 668.522 2006.57 680.522 1975.57 693.523 1997.57 706.523 2003.57 718.524 1985.57 731.524 1999.57 744.525 1997.57 756.525 1995.57 769.525 1937.56 782.526 1975.57 794.526 1990.57 807.527 1988.57 820.527 1932.56 832.527 1978.57 845.528 1975.57 858.528 1969.56 870.529 1979.57 883.529 1961.56 896.53 1920.56 908.53 1954.56 921.53 1940.56 933.531 1894.56 946.531 1967.56 959.532 1960.56 971.532 1904.56 984.532 1941.56 997.533 1939.56 1009.53 1937.56 1022.53 1952.56 1035.53 1956.56 1047.53 1939.56 1060.53 1914.56 1073.54 1949.56 1085.54 1938.56 1098.54 1938.56 1111.54 1916.56 1123.54 1934.56 1136.54 1915.56 1149.54 1907.56 1161.54 1918.56 1174.54 1918.56 1187.54 1927.56 1199.54 1931.56 1212.54 1930.56 1225.54 1928.56 1237.54 1924.56 1250.54 1876.56 1262.54 1897.56 1275.54 1895.56 1288.54 1800.56 1300.54 1746.56 1313.54 1895.56 1326.54 1901.56 1338.54 1861.56 1351.54 1903.56 1364.54 1877.56 1376.55 1840.56 1389.55 1811.56 1402.55 1860.56 1414.55 1890.56 1427.55 1826.56 1440.55 1876.56 1452.55 1861.56 1465.55 1852.56 1478.55 1843.56 1490.55 1864.56 1503.55 1874.56 1516.55 1867.56 1528.55 1802.56 1541.55 1871.56 1554.55 1867.56 1566.55 1795.56 1579.55 1845.56 1591.55 1863.56 1604.55 1862.56 1617.55 1857.56 1629.55 1738.56 1642.55 1767.56 1655.55 1857.56 1667.55 1855.56 1680.56 1838.56 1693.56 1850.56 1705.56 1847.56 1718.56 1802.56 1731.56 1837.56 1743.56 1840.56 1756.56 1848.56 1769.56 1839.56 1781.56 1675.56 1794.56 1782.56 1807.56 1835.56 1819.56 1814.56 1832.56 1680.56 1845.56 1639.55 1857.56 1680.56 1870.56 1810.56 1882.56 1810.56 1895.56 1808.56 1908.56 1799.56 1920.56 1783.56 1933.56 1558.55 1946.56 1709.56 1958.56 1680.56 1971.56 1767.56 1984.57 1802.56 1996.57 1799.56 2009.57 1774.56 2022.57 1785.56 2034.57 1802.56 2047.57 1801.56 2060.57 1803.56 2072.57 1774.56 2085.57 1760.56 2098.57 1643.55 2110.57 1789.56 2123.57 1652.55 2136.57 1775.56 2148.57 1729.56 2161.57 1757.56 2174.57 1785.56 2186.57 1780.56 2199.57 1779.56 2211.57 1758.56 2224.57 1766.56 2237.57 1773.56 2249.57 1663.55 2262.57 1763.56 2275.57 1717.56 2287.58 1761.56 2300.58 1653.55 2313.58 1745.56 2325.58 1708.56 2338.58 1734.56 2351.58 1692.56 2363.58 1672.56 2376.58 1665.55 2389.58 1718.56 2401.58 1674.56 2414.58 1705.56 2427.58 1737.56 2439.58 1591.55 2452.58 1738.56 2465.58 1628.55 2477.58 1556.55 2490.58 1731.56 2503.58 1691.56 2515.58 1528.55 2528.58 1650.55 2540.58 1664.55 2553.58 1572.55 2566.58 1537.55 2578.58 1555.55 2591.59 1695.56 2604.59 1552.55 2616.59 1548.55 2629.59 1637.55 2642.59 1698.56 2654.59 1586.55 2667.59 1645.55 2680.59 1608.55 2692.59 1506.55 2705.59 1517.55 2718.59 1483.55 2730.59 1505.55 2743.59 1540.55 2756.59 1605.55 2768.59 1433.55 2781.59 1461.55 2794.59 1553.55 2806.59 1606.55 2819.59 1517.55 2831.59 1648.55 2844.59 1620.55 2857.59 1378.55 2869.59 1538.55 2882.59 1617.55 2895.6 1634.55 2907.6 1657.55 2920.6 1536.55 2933.6 1386.55 2945.6 1249.54 2958.6 1577.55 2971.6 396.5 2983.6 1632.55 2996.6 1373.55 3009.6 1615.55 3021.6 1622.55 3034.6 1398.55 3047.6 1363.54 3059.6 1332.54 3072.6 1463.55 3085.6 1415.55 3097.6 1405.55 3110.6 1526.55 3123.6 1573.55 3135.6 1384.55 3148.6 1483.55 3160.6 1460.55 3173.6 1592.55 3186.6 1410.55 3198.61 1592.55 3211.61 1585.55 3224.61 1529.55 3236.61 1602.55 3249.61 1582.55 3262.61 1375.55 3274.61 1547.55 3287.61 1480.55 3300.61 1363.54 3312.61 1512.55 3325.61 1559.55 3338.61 1439.55 3350.61 1499.55 3363.61 1355.54 3376.61 1476.55 3388.61 1212.54 3401.61 1585.55 3414.61 1560.55 3426.61 1420.55 3439.61 1438.55 3452.61 1408.55 3464.61 1551.55 3477.61 1316.54 3489.61 1578.55 3502.61 1550.55 3515.62 1576.55 3527.62 1581.55 3540.62 1164.54 3553.62 1506.55 3565.62 1452.55 3578.62 1352.54 3591.62 1422.55 3603.62 1471.55 3616.62 1546.55 3629.62 1112.54 3641.62 1516.55 3654.62 1133.54 3667.62 1432.55 3679.62 899.53 3692.62 1454.55 3705.62 1399.55 3717.62 1545.55 3730.62 1500.55 3743.62 1189.54 3755.62 1329.54 3768.62 1485.55 3780.62 1452.55 3793.62 1447.55 3806.62 1394.55 3818.63 1404.55 3831.63 1506.55 3844.63 1504.55 3856.63 1417.55 3869.63 1366.55 3882.63 1383.55 3894.63 1432.55 3907.63 982.532 3920.63 1519.55 3932.63 1510.55 3945.63 1509.55 3958.63 1492.55 3970.63 1476.55 3983.63 1387.55 3996.63 1019.53 4008.63 1441.55 4021.63 1421.55 4034.63 1239.54 4046.63 1326.54 4059.63 1006.53 4072.63 1426.55 4084.63 1477.55 4097.5 1452.55" stroke="#4472C4" stroke-width="6.875" stroke-linecap="round" stroke-linejoin="round" stroke-miterlimit="10" fill="none"/></g><g clip-path="url(#clip6)"><path d="M313.5 1938.56 326.511 2063.5 339.511 2061.57 351.512 2060.57 364.512 2058.57 377.513 2056.57 389.513 2054.57 402.513 2051.57 415.514 2051.57 427.514 2048.57 440.515 2046.57 453.515 2030.57 465.515 2047.57 478.516 2041.57 491.516 2043.57 503.517 2044.57 516.517 2028.57 529.518 2032.57 541.518 2039.57 554.518 2032.57 567.519 2034.57 579.519 2036.57 592.52 2006.57 605.52 2031.57 617.52 2027.57 630.521 2030.57 642.521 2028.57 655.522 2021.57 668.522 2013.57 680.522 2014.57 693.523 2003.57 706.523 2012.57 718.524 2015.57 731.524 2018.57 744.525 2017.57 756.525 2001.57 769.525 1995.57 782.526 2009.57 794.526 2012.57 807.527 2009.57 820.527 2008.57 832.527 2003.57 845.528 1995.57 858.528 2005.57 870.529 1995.57 883.529 1959.56 896.53 1982.57 908.53 1997.57 921.53 1966.56 933.531 1989.57 946.531 1992.57 959.532 1992.57 971.532 1982.57 984.532 1987.57 997.533 1945.56 1009.53 1979.57 1022.53 1987.57 1035.53 1985.57 1047.53 1972.56 1060.53 1968.56 1073.54 1979.57 1085.54 1980.57 1098.54 1920.56 1111.54 1968.56 1123.54 1967.56 1136.54 1938.56 1149.54 1959.56 1161.54 1972.56 1174.54 1970.56 1187.54 1968.56 1199.54 1967.56 1212.54 1966.56 1225.54 1965.56 1237.54 1963.56 1250.54 1923.56 1262.54 1941.56 1275.54 1891.56 1288.54 1763.56 1300.54 1876.56 1313.54 1940.56 1326.54 1947.56 1338.54 1894.56 1351.54 1894.56 1364.54 1913.56 1376.55 1902.56 1389.55 1898.56 1402.55 1915.56 1414.55 1911.56 1427.55 1837.56 1440.55 1893.56 1452.55 1904.56 1465.55 1903.56 1478.55 1873.56 1490.55 1916.56 1503.55 1931.56 1516.55 1911.56 1528.55 1918.56 1541.55 1890.56 1554.55 1919.56 1566.55 1872.56 1579.55 1923.56 1591.55 1922.56 1604.55 1900.56 1617.55 1880.56 1629.55 1782.56 1642.55 1830.56 1655.55 1904.56 1667.55 1903.56 1680.56 1906.56 1693.56 1908.56 1705.56 1908.56 1718.56 1885.56 1731.56 1904.56 1743.56 1887.56 1756.56 1850.56 1769.56 1813.56 1781.56 1778.56 1794.56 1859.56 1807.56 1879.56 1819.56 1871.56 1832.56 1696.56 1845.56 1821.56 1857.56 1827.56 1870.56 1882.56 1882.56 1850.56 1895.56 1885.56 1908.56 1863.56 1920.56 1716.56 1933.56 1663.55 1946.56 1816.56 1958.56 1796.56 1971.56 1875.56 1984.57 1875.56 1996.57 1870.56 2009.57 1833.56 2022.57 1865.56 2034.57 1850.56 2047.57 1872.56 2060.57 1862.56 2072.57 1848.56 2085.57 1861.56 2098.57 1759.56 2110.57 1809.56 2123.57 1716.56 2136.57 1766.56 2148.57 1799.56 2161.57 1841.56 2174.57 1850.56 2186.57 1817.56 2199.57 1829.56 2211.57 1834.56 2224.57 1850.56 2237.57 1848.56 2249.57 1818.56 2262.57 1831.56 2275.57 1841.56 2287.58 1837.56 2300.58 1697.56 2313.58 1831.56 2325.58 1823.56 2338.58 1817.56 2351.58 1768.56 2363.58 1778.56 2376.58 1697.56 2389.58 1805.56 2401.58 1601.55 2414.58 1826.56 2427.58 1795.56 2439.58 1824.56 2452.58 1827.56 2465.58 1798.56 2477.58 1775.56 2490.58 1796.56 2503.58 1790.56 2515.58 1767.56 2528.58 1738.56 2540.58 1597.55 2553.58 1757.56 2566.58 1523.55 2578.58 1654.55 2591.59 1672.56 2604.59 1689.56 2616.59 1603.55 2629.59 1708.56 2642.59 1793.56 2654.59 1780.56 2667.59 1767.56 2680.59 1694.56 2692.59 1652.55 2705.59 1657.55 2718.59 1698.56 2730.59 1640.55 2743.59 1768.56 2756.59 1785.56 2768.59 1589.55 2781.59 1572.55 2794.59 1701.56 2806.59 1700.56 2819.59 1522.55 2831.59 1773.56 2844.59 1608.55 2857.59 1758.56 2869.59 1564.55 2882.59 1762.56 2895.6 1736.56 2907.6 1731.56 2920.6 1681.56 2933.6 1522.55 2945.6 1599.55 2958.6 1690.56 2971.6 1603.55 2983.6 1653.55 2996.6 1581.55 3009.6 1534.55 3021.6 1562.55 3034.6 1531.55 3047.6 1693.56 3059.6 1526.55 3072.6 1605.55 3085.6 1490.55 3097.6 1734.56 3110.6 1689.56 3123.6 1618.55 3135.6 1502.55 3148.6 1532.55 3160.6 1683.56 3173.6 1735.56 3186.6 1726.56 3198.61 1597.55 3211.61 1682.56 3224.61 1660.55 3236.61 1674.56 3249.61 1691.56 3262.61 1362.54 3274.61 1711.56 3287.61 1692.56 3300.61 1477.55 3312.61 1627.55 3325.61 1707.56 3338.61 1661.55 3350.61 1675.56 3363.61 1463.55 3376.61 1415.55 3388.61 1539.55 3401.61 1713.56 3414.61 1672.56 3426.61 1569.55 3439.61 1552.55 3452.61 1526.55 3464.61 1653.55 3477.61 1441.55 3489.61 1673.56 3502.61 1704.56 3515.62 1654.55 3527.62 950.531 3540.62 1530.55 3553.62 1641.55 3565.62 1324.54 3578.62 1539.55 3591.62 1505.55 3603.62 1679.56 3616.62 1603.55 3629.62 1263.54 3641.62 1664.55 3654.62 1298.54 3667.62 1572.55 3679.62 1109.54 3692.62 1561.55 3705.62 1634.55 3717.62 1647.55 3730.62 1675.56 3743.62 1260.54 3755.62 325.5 3768.62 1567.55 3780.62 1587.55 3793.62 1535.55 3806.62 1505.55 3818.63 1482.55 3831.63 1619.55 3844.63 1632.55 3856.63 1547.55 3869.63 1313.54 3882.63 1611.55 3894.63 1557.55 3907.63 1388.55 3920.63 1624.55 3932.63 1594.55 3945.63 1663.55 3958.63 1642.55 3970.63 410.514 3983.63 529.518 3996.63 886.529 4008.63 1626.55 4021.63 1488.55 4034.63 1455.55 4046.63 1178.54 4059.63 1208.54 4072.63 1562.55 4084.63 1601.55 4097.5 1641.55" stroke="#ED7D31" stroke-width="6.875" stroke-linecap="round" stroke-linejoin="round" stroke-miterlimit="10" fill="none"/></g><g clip-path="url(#clip7)"><text fill="#595959" font-family="Calibri,Calibri_MSFontService,sans-serif" font-weight="400" font-size="41" transform="matrix(1 0 0 1 144.581 2083)">0 ticks</text></g><g clip-path="url(#clip8)"><text fill="#595959" font-family="Calibri,Calibri_MSFontService,sans-serif" font-weight="400" font-size="41" transform="matrix(1 0 0 1 50.6917 1766)">50,000 ticks</text></g><g clip-path="url(#clip9)"><text fill="#595959" font-family="Calibri,Calibri_MSFontService,sans-serif" font-weight="400" font-size="41" transform="matrix(1 0 0 1 29.7917 1449)">100,000 ticks</text></g><g clip-path="url(#clip10)"><text fill="#595959" font-family="Calibri,Calibri_MSFontService,sans-serif" font-weight="400" font-size="41" transform="matrix(1 0 0 1 29.7917 1132)">150,000 ticks</text></g><g clip-path="url(#clip11)"><text fill="#595959" font-family="Calibri,Calibri_MSFontService,sans-serif" font-weight="400" font-size="41" transform="matrix(1 0 0 1 29.7917 815)">200,000 ticks</text></g><g clip-path="url(#clip12)"><text fill="#595959" font-family="Calibri,Calibri_MSFontService,sans-serif" font-weight="400" font-size="41" transform="matrix(1 0 0 1 29.7917 498)">250,000 ticks</text></g><g clip-path="url(#clip13)"><text fill="#595959" font-family="Calibri,Calibri_MSFontService,sans-serif" font-weight="400" font-size="41" transform="matrix(1 0 0 1 29.7917 182)">300,000 ticks</text></g><g clip-path="url(#clip14)"><text fill="#595959" font-family="Calibri,Calibri_MSFontService,sans-serif" font-weight="400" font-size="41" transform="matrix(1 0 0 1 251.633 2137)">0 KB</text></g><g clip-path="url(#clip15)"><text fill="#595959" font-family="Calibri,Calibri_MSFontService,sans-serif" font-weight="400" font-size="41" transform="matrix(1 0 0 1 688.527 2137)">200,000 KB</text></g><g clip-path="url(#clip16)"><text fill="#595959" font-family="Calibri,Calibri_MSFontService,sans-serif" font-weight="400" font-size="41" transform="matrix(1 0 0 1 1182.82 2137)">400,000 KB</text></g><g clip-path="url(#clip17)"><text fill="#595959" font-family="Calibri,Calibri_MSFontService,sans-serif" font-weight="400" font-size="41" transform="matrix(1 0 0 1 1677.1 2137)">600,000 KB</text></g><g clip-path="url(#clip18)"><text fill="#595959" font-family="Calibri,Calibri_MSFontService,sans-serif" font-weight="400" font-size="41" transform="matrix(1 0 0 1 2171.39 2137)">800,000 KB</text></g><g clip-path="url(#clip19)"><text fill="#595959" font-family="Calibri,Calibri_MSFontService,sans-serif" font-weight="400" font-size="41" transform="matrix(1 0 0 1 2650.09 2137)">1,000,000 KB</text></g><g clip-path="url(#clip20)"><text fill="#595959" font-family="Calibri,Calibri_MSFontService,sans-serif" font-weight="400" font-size="41" transform="matrix(1 0 0 1 3144.37 2137)">1,200,000 KB</text></g><g clip-path="url(#clip21)"><text fill="#595959" font-family="Calibri,Calibri_MSFontService,sans-serif" font-weight="400" font-size="41" transform="matrix(1 0 0 1 3638.66 2137)">1,400,000 KB</text></g><g clip-path="url(#clip22)"><text fill="#595959" font-family="Calibri,Calibri_MSFontService,sans-serif" font-weight="400" font-size="41" transform="matrix(1 0 0 1 4132.95 2137)">1,600,000 KB</text></g><g clip-path="url(#clip23)"><rect x="1650.5" y="27.5" width="1102" height="92.0001" stroke="#FFFFFF" stroke-width="3.4375" stroke-linejoin="round" stroke-miterlimit="10" fill="#FFFFFF"/></g><g clip-path="url(#clip24)"><text fill="#595959" font-family="Calibri,Calibri_MSFontService,sans-serif" font-weight="400" font-size="64" transform="matrix(1 0 0 1 1664.47 95)">Encryption/Decryption over message size</text></g><g clip-path="url(#clip25)"><path d="M1903.5 2216.5 1991.5 2216.5" stroke="#4472C4" stroke-width="6.875" stroke-linecap="round" stroke-linejoin="round" stroke-miterlimit="10" fill="none" fill-rule="evenodd"/></g><g clip-path="url(#clip26)"><text fill="#595959" font-family="Calibri,Calibri_MSFontService,sans-serif" font-weight="400" font-size="41" transform="matrix(1 0 0 1 2001.16 2228)">Encryption</text></g><g clip-path="url(#clip27)"><path d="M2233.5 2216.5 2321.5 2216.5" stroke="#ED7D31" stroke-width="6.875" stroke-linecap="round" stroke-linejoin="round" stroke-miterlimit="10" fill="none" fill-rule="evenodd"/></g><g clip-path="url(#clip28)"><text fill="#595959" font-family="Calibri,Calibri_MSFontService,sans-serif" font-weight="400" font-size="41" transform="matrix(1 0 0 1 2330.91 2228)">Decryption</text></g><rect x="0.499836" y="0.499836" width="4403" height="2282" stroke="#D9D9D9" stroke-width="3.4375" stroke-linejoin="round" stroke-miterlimit="10" fill="none"/></g></svg>